<?xml version="1.0"?><svg width="743.39136" height="326.3924" xmlns="http://www.w3.org/2000/svg">

 <metadata id="metadata1906">image/svg+xml</metadata>
 <g>
  <title>Layer 1</title>
  <g opacity="0.15" id="layer1">
   <path transform="rotate(-179.973, 371.695, 163.184)" fill="#007f00" d="m379.343536,-0.01416c-7.901215,-0.095306 -15.746765,0.504578 -23.09375,2.09375c-25.426086,5.499725 -45.919403,17.082275 -68.250031,31.28125c-31.752136,27.156006 -17.093018,-22.32132 -0.4375,-26.34375c-1.967163,-1.818146 -10.82428,2.511963 -15.34375,8.75c-5.233704,-5.36908 -21.446655,-6.596222 -25,0.53125c-9.004028,18.060883 21.900452,3.276611 2.5625,0.8125c29.002686,-12.314545 20.031494,16.246155 9.71875,28.5625c0.835022,4.401917 -47.647888,39.684235 -59.15625,27.78125c15.773743,-25.256592 -9.676697,13.623657 -11.84375,-0.84375c1.856079,-25.460541 -4.647461,15.75885 -6.4375,-0.84375c0.123901,12.556671 -53.348022,29.642166 -31.28125,8c23.839478,-24.121643 15.630432,-56.361328 -12.84375,-71.9375c-15.697205,13.664185 -15.245728,50.791473 2.75,69.21875c-0.0177,25.364395 -51.475952,14.066711 -72.25,14.90625c8.459167,-13.96347 12.6875,-64.109802 36.15625,-62.90625c0.072205,10.667053 14.615601,14.832153 8.4375,-0.59375c-23.219238,-19.001953 -34.085815,39.593658 -45.15625,19.03125c-11.091003,-3.644592 -7.626282,4.811005 3.5,6.0625c6.927063,40.129883 -22.906738,40.389252 -46.875,40.65625c0,0 -24.21875,0 -24.21875,0c0,0 -0.28125,27.0625 -0.28125,27.0625c0,0 49.1875,-0.03125 49.1875,-0.03125c3.656616,-0.349152 21.774841,13.279556 24.34375,20.90625c-6.270325,-0.319733 -14.29895,-0.876907 -17.125,0.25c-37.155457,14.816315 2.675476,45.515594 9.15625,20.71875c-3.340576,-9.707565 -11.623901,5.830765 -17.40625,3.25c-10.678467,-4.766052 -3.496277,-20.471893 13.03125,-21.71875c13.303772,-1.010376 25.0401,12.167984 13.03125,36.1875c-10.294556,20.590744 -42.279724,16.100433 -48.34375,1.40625c-22.833496,-9.453354 1.531555,14.239685 14.375,12.65625c31.764954,2.260452 2.161804,7.593826 8.3125,32.59375c4.3255,17.518372 36.593628,0.894867 17.3125,-10.84375c-13.42981,-8.17627 6.547852,10.726456 0.375,13.96875c-25.389771,13.33609 -18.860107,-29.300125 -1.46875,-35.1875c21.464233,-15.787704 25.387634,-50.087082 3.78125,-67.34375c-16.086121,-10.771393 17.052368,-8.453354 27.84375,-11.15625c29.791138,-5.381958 21.171265,23.445663 8.8125,40.1875c-5.590576,7.573318 -21.821533,46.937378 -6.59375,74.59375c11.945923,21.695801 53.233337,44.937561 49.71875,68.0625c-2.444031,16.081055 -7.166443,16.400177 21.75,3.0625c35.937378,-16.57608 47.02356,-73.800079 45.1875,-95.65625c-2.349609,-27.970047 -13.353088,-54.034332 -33.6875,-69.21875c-19.814758,-14.796387 -42.962219,-20.517487 -68.15625,-19.96875c-7.286926,-7.387955 38.444336,-9.804932 48.3125,-13.6875c15.869385,-7.414886 76.967651,-11.076477 49.46875,21.5c-17.781372,-10.943146 -17.811951,-10.316269 -0.53125,3.375c0.040222,6.801346 3.323608,23.030426 7.78125,26.59375c-3.24469,1.543015 4.513367,23.760422 6.21875,33.40625c2.505981,14.173691 10.999939,33.381104 -4.71875,52.25c-16.993713,31.207367 18.501953,51.333069 -16.40625,61.8125c-3.991089,4.72818 11.178284,-1.256561 16.46875,-10.59375c0.997375,19.5784 -15.309875,22.545013 -1.96875,33.75c12.747498,-4.118835 -11.651733,-1.349121 -2.59375,-13.96875c17.563599,-26.191467 -13.289307,-48.042786 10.21875,-77.1875c14.68988,-18.212158 -10.069519,-75.86171 -5.875,-78.8125c10.255493,5.130447 5.682251,-9.734863 0.0625,-2.46875c-17.740051,-28.4814 7.338257,-33.981354 1.125,-51.15625c-5.229675,-14.456146 -23.042725,-6.910706 -1.625,-12.5625c27.126831,-8.205139 48.395874,-28.182251 72.5625,-40.25c20.347137,8.095947 -3.946838,-0.44635 8.28125,-4.75c23.159973,-8.115143 56.509796,-24.481476 76.250031,-1.1875c22.836365,22.728882 -3.004974,61.194901 -37,59.5c-35.772675,-1.783524 -36.211639,-48.893677 3.21875,-52.25c29.662201,-2.524841 32.438293,36.900116 1.34375,31.125c-1.122833,0.794312 -6.518097,6.086304 4.84375,3.65625c35.922607,-7.683044 15.778687,-37.701447 -3.09375,-37.4375c-34.510162,0.482635 -55.484344,43.892761 -15.5625,55.5c24.625885,5.955551 53.604553,-1.552582 59.28125,-30.8125c2.647888,-26.756744 -10.711609,-47.264282 -45.375,-51.375c-8.734161,-7.215027 46.345612,-25.34967 48.40625,-0.71875c6.041534,20.397095 16.018921,-4.530334 -1.3125,-10c8.077057,-3.196259 50.159393,3.478638 59.09375,19.125c-17.292419,14.463837 -38.813965,18.638611 -41.1875,58.84375c-25.418884,6.658691 4.897766,14.948547 20.1875,14.5625c27.166809,-0.685928 50.338287,-14.903809 43.28125,-43.15625c-4.633911,-15.003357 -31.421906,-25.876343 -16.03125,-30.1875c23.894196,16.048065 45.762512,35.031006 68.750031,52.21875c23.315552,18.855133 48.781433,34.098053 89.218689,48.53125c20.804443,7.42569 52.128174,-3.677231 46.125,27.90625c20.5401,4.876572 -14.429993,-30.124115 3.84375,-22.90625c28.313477,-2.070328 22.098267,19.676193 21.59375,38.40625c-17.617065,1.932373 -4.05011,29.556091 15.09375,23.34375c16.694519,15.242142 46.613647,-10.89119 41.65625,-30.625c-5.18335,-20.633606 -18.757935,-1.772049 -19.59375,-11.03125c-9.306824,-1.91066 -56.502136,-18.125412 -33.25,-21c29.721375,1.324905 20.62439,-56.756134 5.5625,-47.28125c12.843201,11.410095 19.357605,38.954636 -6.03125,45.625c-20.708923,0.742035 -42.683533,0.84465 -63.28125,-2.9375c-24.688171,-5.857544 -44.280029,-15.176193 -69.343689,-28c-8.29187,-4.242493 -57.671692,-40.200592 -28.25,-24.71875c19.131653,9.902863 57.763611,28.227875 66.374939,-2.375c-5.992676,-4.477509 -13.319397,-10.647522 -21.5,-15.9375c-0.228455,3.053375 -2.763123,5.46875 -5.875,5.46875c-1.616028,0 -3.088989,-0.666473 -4.156189,-1.71875c-1.508911,1.446503 -3.558838,2.34375 -5.8125,2.34375c-4.635803,0 -8.375,-3.770477 -8.375,-8.40625c0,-3.019806 1.581055,-5.673859 3.96875,-7.15625c-8.505981,-2.186493 -17.419067,-1.907166 -26.375,2.875c-22.11145,11.688416 -36.306305,-6.238556 -52.406281,-18.78125c13.851624,2.55899 43.651154,-8.454163 31.65625,-29.65625c-13.094177,-12.864197 -12.408234,9.269226 -7.78125,1.65625c16.920013,0.472504 2.25177,26.780304 -17.46875,22.84375c-24.589935,-4.9086 -35.897888,-18.345459 -63.65625,-24.40625c-11.406342,-2.490479 -24.737579,-4.559906 -37.90625,-4.71875zm-156.281281,152.71875c2.303772,0.041626 3.589539,5.653427 -2.40625,2.34375c0.764648,-1.764709 1.638367,-2.35762 2.40625,-2.34375zm485.25,1.5625c7.108887,-0.182373 12.122559,4.748856 16.59375,5.71875c28.98761,-9.010544 15.427185,36.071564 -3.46875,38.5c-2.650818,1.787903 -13.151794,4.576447 -20.15625,-2.3125c-7.272278,7.396759 -35.862305,-11.854095 -14,-21.3125c1.680725,-10.087936 4.713684,-12.610962 9.875,-16.3125c4.251404,-3.048981 7.924988,-4.198364 11.15625,-4.28125zm9.90625,19.4375c-4.538452,0.028961 -8.467346,0.91684 1.84375,2.53125c7.842712,-1.73024 2.694763,-2.560211 -1.84375,-2.53125zm-8.28125,1.96875c-1.846802,-0.109802 -1.32782,2.22319 5.625,8.65625l2.59375,0.90625l2.03125,-0.6875c-1.584534,-4.585526 -7.875488,-8.733826 -10.25,-8.875zm-4.84375,3.5625c-1.017395,-0.008133 -0.677063,1.851776 3.15625,7.25l0.9375,1.15625c7.003662,0.557037 -1.855408,-8.388336 -4.09375,-8.40625z" id="path6348"/>
  </g>
  <text transform="matrix(19.5051, 0, 0, 2.81481, -11552.4, -556.73)" xml:space="preserve" text-anchor="middle" font-family="Arial" font-size="24" id="svg_1" y="301.607605" x="617.608643" opacity="0.15" stroke-width="0" stroke="#000000" fill="#000000"/>
 </g>
</svg>